# xmcd
#
# Track frame offsets:
#	150
#	7725
#	19162
#	30500
#	39600
#	47100
#	57675
#	65850
#	76200
#	86050
#	94350
#
# Disc length: 1423 seconds
#
# Revision: 2
# Processed by: cddbd v1.4PL0 Copyright (c) Steve Scherf et al.
# Submitted via: audiograbber 1.82.01
#
DISCID=8d058d0b
DTITLE=Jerry Lee Lewis - Ole Tyme Country Music
DYEAR=1900
DGENRE=ROCK-RLL
TTITLE0=Jerry Lee Lewis - Waiting For A Train
TTITLE1=Jerry Lee Lewis - Carry Me Back To Old Virginia
TTITLE2=Jerry Lee Lewis - John Henry
TTITLE3=Jerry Lee Lewis - Old Black Joe
TTITLE4=Jerry Lee Lewis - My Blue Heaven
TTITLE5=Jerry Lee Lewis - You're The Only Star
TTITLE6=Jerry Lee Lewis - The Crawdad Song
TTITLE7=Jerry Lee Lewis - Hand Me Down My Walking Cane
TTITLE8=Jerry Lee Lewis - You Are My Sunshine
TTITLE9=Jerry Lee Lewis - I'll Keep On Loving You
TTITLE10=Jerry Lee Lewis - Deep Elem Blues
EXTD=
EXTT0=
EXTT1=
EXTT2=
EXTT3=
EXTT4=
EXTT5=
EXTT6=
EXTT7=
EXTT8=
EXTT9=
EXTT10=
PLAYORDER=
